# xmcd
#
# Track frame offsets:
#	183
#	11878
#	22893
#	33090
#	46470
#	55215
#	65828
#	76533
#	87355
#	97238
#
# Disc length: 1446 seconds
#
# Revision: 3
# Processed by: cddbd v1.5.2PL0 Copyright (c) Steve Scherf et al.
# Submitted via: audiograbber 1.83.01
#
DISCID=7805a40a
DTITLE=Various Artist - The Best Of Cajun Country
DYEAR=1989
DGENRE=Ethnic Cajun
TTITLE0=Doug Kershaw - Louisiana Man
TTITLE1=Fiddlin´ Frenchie Bourke - (Let's Go To) Big Mamou
TTITLE2=Jimmy C. Newman - Colinda
TTITLE3=Johnny Paycheck - Jole Blon
TTITLE4=Rod Bernard - Papa Thibodeaux
TTITLE5=Cleveland Crochet and The Sugar Bees - Sugar Bee
TTITLE6=Louisiana Saturday Night - Louisiana Saturday Night
TTITLE7=Papa Link Davis - Let's Go to Big Houston
TTITLE8=Joe Sonnier - Knock, Knock, Knock
TTITLE9=Guy and Ralna - Diggy Liggy Lo
EXTD=
EXTT0=Rusty and Doug Kershaw
EXTT1=Fiddlin' Frenchie Bourke
EXTT2=Jimmy C. Newman
EXTT3=Johnny Paycheck
EXTT4=Rod Bernard
EXTT5=Cleveland Crochet and The Sugar Bees
EXTT6=Don Williams
EXTT7=Papa Link Davis
EXTT8=Joel Sonnier
EXTT9=Guy and Raina
PLAYORDER=
